<svg width="665" height="810" viewBox="0 0 665 810" fill="#ddd" xmlns="http://www.w3.org/2000/svg">
    <path d="M74.5 56.5L96 3.5H116L155.5 17.5L208 26.5L251 46.5L278.5 83L306.5 98L376.5 126.5L470 146.5C476.667 154.167 491.7 170.3 498.5 173.5C507 177.5 535.5 217 542.5 221C549.5 225 566 265.5 569 270.5C571.4 274.5 578 307.167 581 323L594 371.5L634.5 413.5V484.5L642.5 586C644.5 609 648.5 657.6 648.5 668C648.5 678.4 657.167 717.333 661.5 735.5C650.5 742.833 626.5 758.7 618.5 763.5C608.5 769.5 589 773 581 779C574.6 783.8 548 791.667 535.5 795L490 806L470 773L430.5 716.5L376.5 703L352 668L306.5 645.5L232 668L147.5 655L91 645.5L80 586L74.5 516.5L67.5 504.5L15 484.5L4 449L27.5 360.5C37.5 324.5 57.3 251.5 56.5 247.5C55.7 243.5 63.5 165.167 67.5 126.5L74.5 56.5Z" stroke="#808080" stroke-width="6"/>
</svg>
